<svg width="32" height="32" viewBox="0 0 32 32" fill="none" xmlns="http://www.w3.org/2000/svg">
<g clip-path="url(#clip0_332_2)">
<path d="M15.1837 31.6559C23.389 31.6559 30.0408 24.6466 30.0408 16C30.0408 7.35351 23.389 0.344116 15.1837 0.344116C6.9783 0.344116 0.32653 7.35351 0.32653 16C0.32653 24.6466 6.9783 31.6559 15.1837 31.6559Z" fill="white" stroke="black" stroke-width="2"/>
<path d="M19.9184 16.5161C20.4594 16.5161 20.898 15.2837 20.898 13.7634C20.898 12.2432 20.4594 11.0107 19.9184 11.0107C19.3774 11.0107 18.9388 12.2432 18.9388 13.7634C18.9388 15.2837 19.3774 16.5161 19.9184 16.5161Z" fill="black"/>
<path d="M19.9184 16.5161C20.4594 16.5161 20.898 15.2837 20.898 13.7634C20.898 12.2432 20.4594 11.0107 19.9184 11.0107C19.3774 11.0107 18.9388 12.2432 18.9388 13.7634C18.9388 15.2837 19.3774 16.5161 19.9184 16.5161Z" fill="black"/>
<path d="M19.9184 16.5161C20.4594 16.5161 20.898 15.2837 20.898 13.7634C20.898 12.2432 20.4594 11.0107 19.9184 11.0107C19.3774 11.0107 18.9388 12.2432 18.9388 13.7634C18.9388 15.2837 19.3774 16.5161 19.9184 16.5161Z" fill="black"/>
<path d="M25.4694 16.5161C26.0104 16.5161 26.449 15.2837 26.449 13.7634C26.449 12.2432 26.0104 11.0107 25.4694 11.0107C24.9284 11.0107 24.4898 12.2432 24.4898 13.7634C24.4898 15.2837 24.9284 16.5161 25.4694 16.5161Z" fill="black"/>
<path d="M25.4694 16.5161C26.0104 16.5161 26.449 15.2837 26.449 13.7634C26.449 12.2432 26.0104 11.0107 25.4694 11.0107C24.9284 11.0107 24.4898 12.2432 24.4898 13.7634C24.4898 15.2837 24.9284 16.5161 25.4694 16.5161Z" fill="black"/>
<path d="M25.4694 16.5161C26.0104 16.5161 26.449 15.2837 26.449 13.7634C26.449 12.2432 26.0104 11.0107 25.4694 11.0107C24.9284 11.0107 24.4898 12.2432 24.4898 13.7634C24.4898 15.2837 24.9284 16.5161 25.4694 16.5161Z" fill="black"/>
<path d="M15.0204 23.0538C20.2449 26.1505 26.6122 25.6344 31.3469 21.5054" stroke="black" stroke-width="3" stroke-linecap="round"/>
</g>
<defs>
<clipPath id="clip0_332_2">
<rect width="32" height="32" fill="white"/>
</clipPath>
</defs>
</svg>
